<svg xmlns="http://www.w3.org/2000/svg" width="865.76" height="682.89" viewBox="0 0 865.76 682.89"><ellipse cx="438.83" cy="593.87" rx="278.44" ry="41.9" transform="translate(-12.48 9.43) rotate(-1.21)" fill="#f75fe0"/><ellipse cx="438.83" cy="593.87" rx="278.44" ry="41.9" transform="translate(-12.48 9.43) rotate(-1.21)" fill="#fff" opacity="0.7"/><path d="M745.72,421.14s87.79-82.83,39.56-192.83a189.18,189.18,0,0,0-62-76.45c-60.36-44.07-213.1-131.27-442.86-97.59a171.41,171.41,0,0,0-69.2,26c-33.73,22.12-69.47,62.77-54.27,132.39,5.37,24.61,4.16,50.28-4.7,73.87-8.77,23.37-25.4,52-56.35,82.94,0,0-66,63.71-1.79,118.85a117,117,0,0,0,47.39,24.38C221.46,533.18,545,601.17,745.72,421.14Z" fill="#f75fe0"/><path d="M745.72,421.14s87.79-82.83,39.56-192.83a189.18,189.18,0,0,0-62-76.45c-60.36-44.07-213.1-131.27-442.86-97.59a171.41,171.41,0,0,0-69.2,26c-33.73,22.12-69.47,62.77-54.27,132.39,5.37,24.61,4.16,50.28-4.7,73.87-8.77,23.37-25.4,52-56.35,82.94,0,0-66,63.71-1.79,118.85a117,117,0,0,0,47.39,24.38C221.46,533.18,545,601.17,745.72,421.14Z" fill="#fff" opacity="0.7"/><path d="M260.17,344.6v26.62a3.92,3.92,0,0,0,3.92,3.92h96.58" fill="none" stroke="#1365a0" stroke-miterlimit="10"/><path d="M356.64,359.62H302.9a5.24,5.24,0,0,1-5.23-5.24V344.6h1v9.78a4.24,4.24,0,0,0,4.23,4.24h53.74Z" fill="#1365a0"/><path d="M161.17,292.6a6.5,6.5,0,0,0,6.32-5h19.18v-3H167.49a6.5,6.5,0,1,0-6.32,8Zm0-10a3.5,3.5,0,1,1-3.5,3.5A3.5,3.5,0,0,1,161.17,282.6Z" fill="#47ae8c"/><path d="M170.17,254.35a6.5,6.5,0,0,0,6.32-5h11.18v-3H176.49a6.5,6.5,0,1,0-6.32,8Zm0-10a3.5,3.5,0,1,1-3.5,3.5A3.5,3.5,0,0,1,170.17,244.35Z" fill="#47ae8c"/><path d="M234.67,180.1a6.48,6.48,0,0,0,5,6.32V197.6h3V186.42a6.5,6.5,0,1,0-8-6.32Zm10,0a3.5,3.5,0,1,1-3.5-3.5A3.5,3.5,0,0,1,244.67,180.1Z" fill="#47ae8c"/><path d="M291.67,173.1a6.48,6.48,0,0,0,5,6.32V190.6h3V179.42a6.5,6.5,0,1,0-8-6.32Zm10,0a3.5,3.5,0,1,1-3.5-3.5A3.5,3.5,0,0,1,301.67,173.1Z" fill="#47ae8c"/><path d="M354.17,241.1a6.51,6.51,0,0,0-6.32,5H336.67v3h11.18a6.5,6.5,0,1,0,6.32-8Zm0,10a3.5,3.5,0,1,1,3.5-3.5A3.49,3.49,0,0,1,354.17,251.1Z" fill="#47ae8c"/><rect x="204.67" y="211.6" width="111" height="111" rx="4.86" fill="#1365a0"/><rect x="214.67" y="221.6" width="90" height="90" fill="#e35c5c"/><rect x="214.67" y="221.6" width="90" height="90" opacity="0.2"/><path d="M388,321.38l5.55.27s-.43-6.34-2.75-8.3l-3.42,3.5Z" fill="#f75fe0"/><path d="M388,321.38l5.55.27s-.43-6.34-2.75-8.3l-3.42,3.5Z" opacity="0.2"/><path d="M385,321.24H353.42c-1.76-5.09,2.28-5.9,2.28-5.9a6.85,6.85,0,0,1,2.38-7.9c-3.67-7.18,5.27-5.75,5.27-5.75l-11.57-8.85a3.83,3.83,0,0,1-1.54-2.57c-.16-1.44.83-1.84,2.43-1.58,5.3.86,17.39,8.81,17.39,8.81,7.8,4.37,8.61,8.42,8.61,8.42Z" fill="#f5b6b4"/><path d="M376.44,310.83a141,141,0,0,0-13.09-9.13l-11.57-8.85a3.83,3.83,0,0,1-1.54-2.57c-.16-1.44.83-1.84,2.43-1.58-3,3.89,12.3,10.57,12.3,10.57C374.72,304.74,376.44,310.83,376.44,310.83Z" fill="#f1888a"/><path d="M358.08,307.45s5.69,12.13,2.23,13.8h6.54S362.5,309.17,358.08,307.45Z" fill="#f1888a"/><polygon points="356.32 321.25 355.7 315.35 358.73 321.36 356.32 321.25" fill="#f1888a"/><path d="M379.72,308.48s18.79,1.39,8.23,12.9l-3-.14Z" fill="#f75fe0"/><polygon points="510.5 463.61 534.63 606.3 538.97 606.3 520.86 461.31 510.5 463.61" fill="#463548"/><polygon points="510.5 463.61 534.63 606.3 538.97 606.3 520.86 461.31 510.5 463.61" opacity="0.2"/><polygon points="446.29 573.39 446.29 584.83 468.85 584.83 468.85 571.51 446.29 573.39" fill="#f5b6b4"/><path d="M417.52,605.61H468a2.85,2.85,0,0,0,2.85-2.79c.12-5.2.09-16.17-2-19.89H446.29S411.08,595.48,417.52,605.61Z" fill="#1365a0"/><polygon points="370.8 568.33 370.8 584.83 393.36 584.83 393.36 566.49 370.8 568.33" fill="#f5b6b4"/><path d="M342,605.61h50.46a2.86,2.86,0,0,0,2.86-2.79c.11-5.2.09-16.17-2-19.89H370.8S335.59,595.48,342,605.61Z" fill="#1365a0"/><polygon points="520.63 322.53 487.72 322.53 487.72 450.95 523.34 450.95 520.63 322.53" fill="#463548"/><polygon points="520.63 322.53 487.72 322.53 487.72 450.95 523.34 450.95 520.63 322.53" opacity="0.2"/><path d="M274.14,409.3,258.72,601h4.37c1.62,0,26.05-191.71,26.05-191.71Z" fill="#463548"/><polygon points="588.24 409.3 612.92 599.17 619.59 599.17 603.91 403.08 588.24 409.3" fill="#463548"/><polygon points="531.9 467.75 403.6 467.75 403.6 450.95 523.34 450.95 520.63 322.53 529.51 322.53 531.9 467.75" fill="#463548"/><path d="M448,412.29,431.79,452.1l-15.19,8.52c-9.2,3.91-9.66,11.51-9.66,11.51L408.09,567a45.54,45.54,0,0,1-11.59,3.46c-15.88,2.72-33.75-.47-33.75-.47-1.38,1.15-5.07-97.81-5.07-97.81-2.53-46.26,22.56-48.8,22.56-48.8l25.15-11Z" fill="#1365a0"/><path d="M448,412.29,431.79,452.1l-15.19,8.52c-9.2,3.91-9.66,11.51-9.66,11.51L408.09,567a45.54,45.54,0,0,1-11.59,3.46l-3.14-101a19.29,19.29,0,0,1,7.59-17l21.41-21.86s17-11.74,17-18.18Z" fill="#fff" opacity="0.4"/><path d="M568.87,350.63c-.33-2-.61-3.24-.61-3.24l-13.34-33.61c-10.59-29.68-38-31.61-38-31.61H487.72l-25.55,2c-2.53-.3-4.9-.47-7.11-.53-15.87-.44-23.5,4.62-23.5,4.62-25.31,17-24.68,93-24.68,93h60.87L471,366.93v14.29h10a3.94,3.94,0,0,0,1.44,3c1.95,1.63,5.22,1.39,5.22,1.39h73.87C572.2,378.28,570.16,358.46,568.87,350.63Zm-50.77,3.2c1.84-9.9,5.24-22,5.24-22-.73,4,5.11,23.88,5.11,23.88Z" fill="#f75fe0"/><path d="M528.45,355.67l16.11,3.68S522.93,325,518.1,297.17c0,0-4.7,9.58,5.24,34.62A104.81,104.81,0,0,0,528.45,355.67Z" opacity="0.2"/><path d="M478.05,363s-6.44,1.13-7,3.91h-3.28s-.44-5.27,8.5-7.58c0,0-.52-11.5,15.48-14.15,0,0,13.25-.81,19.46,2.19,0,0,9.12-7.73,12.15-15.6l-5.24,22S481,343.22,478.05,363Z" opacity="0.2"/><path d="M561.59,385.59H487.72s-3.27.24-5.22-1.39c0,0,57.69-1.6,70.81-11.27a52.46,52.46,0,0,0,15.56-22.3C570.16,358.46,572.2,378.28,561.59,385.59Z" opacity="0.2"/><path d="M488.5,381.22v4.37H360l-11.62-61.28a3,3,0,0,1,2.9-3.51l77.25-.11h2.41a3,3,0,0,1,2.92,2.22L450,381.22Z" fill="#1365a0"/><path d="M471,366.93h-2.09a6.4,6.4,0,0,1-2.25-.41c-3.94-1.47-17.53-6.28-18.9-3.14l-1.73,3.55,1.47,5.26,2.35-1.44a1.34,1.34,0,0,1,1.84.42h0a1.35,1.35,0,0,1-.29,1.79l-3,2.42,1.63,5.84h5.66l4.74-3.34A21.16,21.16,0,0,0,471,381.22Z" fill="#f5b6b4"/><path d="M433.82,322.91s.43-8.78,3.63-11.89a110.18,110.18,0,0,0,.79,27.79Z" opacity="0.2"/><path d="M450,381.22h-4L428.49,320.7h2.41a3,3,0,0,1,2.92,2.22Z" opacity="0.2"/><ellipse cx="394.85" cy="353.71" rx="8.75" ry="11.28" fill="#fff" opacity="0.4"/><rect x="263.09" y="398.02" width="349.82" height="14.27" fill="#d9b288"/><rect x="249.98" y="385.59" width="377.67" height="12.43" fill="#463548"/><path d="M497.44,282.17C493.16,301.06,475,300.55,475,300.55c-16.15,1.72-19.3-11.26-19.9-16.93,2.21.06,4.58.23,7.11.53l25.55-2Z" fill="#fff"/><path d="M462.17,271.21v9.86a14,14,0,0,0,2.82,8.55c2.19,2.86,5.93,5.41,12.14,4.14,0,0,11.28-1.37,10.59-13.69l-1.56-28.66Z" fill="#f5b6b4"/><path d="M462.17,271.21v9.86s13.81-2.21,15.77-14.32Z" fill="#f1888a"/><path d="M486.16,251.41l.75,13.79s6.27-3.52,7.11-9.46Z" fill="#463548"/><path d="M454.92,231.13l-2.57,28.36a13.77,13.77,0,0,0,6.59,13.11c3.88,2.3,9.09,3.17,15-1.64a22.93,22.93,0,0,0,6.73-9.13c2.15-5.23,5.91-15.11,7-22.84l-26.44-17.26Z" fill="#f5b6b4"/><path d="M482.88,249.8h12C508,227.71,491,227.71,491,227.71c3.54-12.66-18.72-9.67-18.72-9.67s-24.86-13.58-25.89,3.69c0,0-1.92,10.89,5.89,14.53a14.21,14.21,0,0,0,12.17-5.33s1.15,12.89,14,6.68c0,0,1.33,10.94,4.37,12.19" fill="#463548"/><ellipse cx="471.03" cy="249.8" rx="7.02" ry="8.06" fill="none" stroke="#fff" stroke-miterlimit="10"/><ellipse cx="455.03" cy="247.8" rx="7.02" ry="8.06" fill="none" stroke="#fff" stroke-miterlimit="10"/><path d="M436.85,574.54s26.37,5.29,45.52,0l-4-100.89a8.91,8.91,0,0,1,.95-4.39,25.29,25.29,0,0,1,8.42-9.1s32.42-23.48,27.37-47.87H448a212.44,212.44,0,0,1-12.33,18.18s-7.45,6.21-6.6,43.5Z" fill="#1365a0"/><line x1="462.05" y1="247.8" x2="464.24" y2="247.8" fill="none" stroke="#fff" stroke-miterlimit="10"/><line x1="478.05" y1="249.8" x2="487.72" y2="246.8" fill="none" stroke="#fff" stroke-miterlimit="10"/><circle cx="489.56" cy="251.41" r="6.21" fill="#f5b6b4"/><rect x="560.91" y="352.69" width="55.21" height="8.06" fill="#1365a0"/><path d="M568.46,353.68a17.85,17.85,0,0,1,0,6.91A17.11,17.11,0,0,1,568.46,353.68Z" fill="#fafafa"/><path d="M567.24,353.53a17.11,17.11,0,0,1,0,6.91A17.85,17.85,0,0,1,567.24,353.53Z" fill="#fafafa"/><path d="M603.44,357.29c0,.19-6.32.35-14.12.35s-14.13-.16-14.13-.35,6.33-.34,14.13-.34S603.44,357.09,603.44,357.29Z" fill="#fafafa"/><rect x="565.61" y="360.72" width="50.39" height="25.22" fill="#e35c5c"/><path d="M574,361.71a100.1,100.1,0,0,1,.34,11.62A100.23,100.23,0,0,1,574,385a96,96,0,0,1-.35-11.62A95.86,95.86,0,0,1,574,361.71Z" fill="#e0e0e0"/><path d="M577.76,361.9a94.83,94.83,0,0,1,.36,11.43,94.67,94.67,0,0,1-.36,11.42,99,99,0,0,1-.34-11.42A99.12,99.12,0,0,1,577.76,361.9Z" fill="#e0e0e0"/><path d="M605.72,361.56a98.34,98.34,0,0,1,.35,11.77,98.47,98.47,0,0,1-.35,11.77,102.83,102.83,0,0,1-.34-11.77A102.7,102.7,0,0,1,605.72,361.56Z" fill="#e0e0e0"/><rect x="219.67" y="227.6" width="79" height="79" fill="#e35c5c"/><path d="M284.38,227.6h14.29v79h-79V295S269.1,284.6,284.38,227.6Z" fill="#fff" opacity="0.4"/><path d="M337.67,228.6a3,3,0,0,1-3,3h-19v-6h19A3,3,0,0,1,337.67,228.6Z" fill="#1365a0"/><path d="M337.67,228.6a3,3,0,0,1-3,3h-14v-6h14A3,3,0,0,1,337.67,228.6Z" opacity="0.2"/><path d="M337.67,247.6a3,3,0,0,1-3,3h-19v-6h19A3,3,0,0,1,337.67,247.6Z" fill="#1365a0"/><path d="M337.67,247.6a3,3,0,0,1-3,3h-14v-6h14A3,3,0,0,1,337.67,247.6Z" opacity="0.2"/><path d="M337.67,266.6a3,3,0,0,1-3,3h-19v-6h19A3,3,0,0,1,337.67,266.6Z" fill="#1365a0"/><path d="M337.67,266.6a3,3,0,0,1-3,3h-14v-6h14A3,3,0,0,1,337.67,266.6Z" opacity="0.2"/><path d="M337.67,285.6a3,3,0,0,1-3,3h-19v-6h19A3,3,0,0,1,337.67,285.6Z" fill="#1365a0"/><path d="M337.67,285.6a3,3,0,0,1-3,3h-14v-6h14A3,3,0,0,1,337.67,285.6Z" opacity="0.2"/><path d="M337.67,304.6a3,3,0,0,1-3,3h-19v-6h19A3,3,0,0,1,337.67,304.6Z" fill="#1365a0"/><path d="M337.67,304.6a3,3,0,0,1-3,3h-14v-6h14A3,3,0,0,1,337.67,304.6Z" opacity="0.2"/><path d="M298.17,344.6a3,3,0,0,1-3-3v-19h6v19A3,3,0,0,1,298.17,344.6Z" fill="#1365a0"/><path d="M298.17,344.6a3,3,0,0,1-3-3v-14h6v14A3,3,0,0,1,298.17,344.6Z" opacity="0.2"/><path d="M279.17,344.6a3,3,0,0,1-3-3v-19h6v19A3,3,0,0,1,279.17,344.6Z" fill="#1365a0"/><path d="M279.17,344.6a3,3,0,0,1-3-3v-14h6v14A3,3,0,0,1,279.17,344.6Z" opacity="0.2"/><path d="M260.17,344.6a3,3,0,0,1-3-3v-19h6v19A3,3,0,0,1,260.17,344.6Z" fill="#1365a0"/><path d="M260.17,344.6a3,3,0,0,1-3-3v-14h6v14A3,3,0,0,1,260.17,344.6Z" opacity="0.2"/><path d="M241.17,344.6a3,3,0,0,1-3-3v-19h6v19A3,3,0,0,1,241.17,344.6Z" fill="#1365a0"/><path d="M241.17,344.6a3,3,0,0,1-3-3v-14h6v14A3,3,0,0,1,241.17,344.6Z" opacity="0.2"/><path d="M222.17,344.6a3,3,0,0,1-3-3v-19h6v19A3,3,0,0,1,222.17,344.6Z" fill="#1365a0"/><path d="M222.17,344.6a3,3,0,0,1-3-3v-14h6v14A3,3,0,0,1,222.17,344.6Z" opacity="0.2"/><path d="M182.67,305.1a3,3,0,0,1,3-3h19v6h-19A3,3,0,0,1,182.67,305.1Z" fill="#1365a0"/><path d="M182.67,305.1a3,3,0,0,1,3-3h14v6h-14A3,3,0,0,1,182.67,305.1Z" opacity="0.2"/><path d="M182.67,286.1a3,3,0,0,1,3-3h19v6h-19A3,3,0,0,1,182.67,286.1Z" fill="#1365a0"/><path d="M182.67,286.1a3,3,0,0,1,3-3h14v6h-14A3,3,0,0,1,182.67,286.1Z" opacity="0.2"/><path d="M182.67,267.1a3,3,0,0,1,3-3h19v6h-19A3,3,0,0,1,182.67,267.1Z" fill="#1365a0"/><path d="M182.67,267.1a3,3,0,0,1,3-3h14v6h-14A3,3,0,0,1,182.67,267.1Z" opacity="0.2"/><path d="M182.67,248.1a3,3,0,0,1,3-3h19v6h-19A3,3,0,0,1,182.67,248.1Z" fill="#1365a0"/><path d="M182.67,248.1a3,3,0,0,1,3-3h14v6h-14A3,3,0,0,1,182.67,248.1Z" opacity="0.2"/><path d="M182.67,229.1a3,3,0,0,1,3-3h19v6h-19A3,3,0,0,1,182.67,229.1Z" fill="#1365a0"/><path d="M182.67,229.1a3,3,0,0,1,3-3h14v6h-14A3,3,0,0,1,182.67,229.1Z" opacity="0.2"/><path d="M222.17,189.6a3,3,0,0,1,3,3v19h-6v-19A3,3,0,0,1,222.17,189.6Z" fill="#1365a0"/><path d="M222.17,189.6a3,3,0,0,1,3,3v14h-6v-14A3,3,0,0,1,222.17,189.6Z" opacity="0.2"/><path d="M241.17,189.6a3,3,0,0,1,3,3v19h-6v-19A3,3,0,0,1,241.17,189.6Z" fill="#1365a0"/><path d="M241.17,189.6a3,3,0,0,1,3,3v14h-6v-14A3,3,0,0,1,241.17,189.6Z" opacity="0.2"/><path d="M260.17,189.6a3,3,0,0,1,3,3v19h-6v-19A3,3,0,0,1,260.17,189.6Z" fill="#1365a0"/><path d="M260.17,189.6a3,3,0,0,1,3,3v14h-6v-14A3,3,0,0,1,260.17,189.6Z" opacity="0.2"/><path d="M279.17,189.6a3,3,0,0,1,3,3v19h-6v-19A3,3,0,0,1,279.17,189.6Z" fill="#1365a0"/><path d="M279.17,189.6a3,3,0,0,1,3,3v14h-6v-14A3,3,0,0,1,279.17,189.6Z" opacity="0.2"/><path d="M298.17,189.6a3,3,0,0,1,3,3v19h-6v-19A3,3,0,0,1,298.17,189.6Z" fill="#1365a0"/><path d="M298.17,189.6a3,3,0,0,1,3,3v14h-6v-14A3,3,0,0,1,298.17,189.6Z" opacity="0.2"/><path d="M335.67,608.6H202s-52.19,6.11-48.24-41.94c0,0,1.94-28.06,38.94-30.06,0,0-.5-50.27,46.75-49.13,0,0,26.41-3.77,43.83,26.68,0,0,23.42-11.55,41.42,6.45a38.17,38.17,0,0,1,8.68,30s30.1,3.21,27.71,29.1C361.06,579.72,362.67,602.6,335.67,608.6Z" fill="#fff"/><path d="M307.38,608.6H216.85s-35.34,4.14-32.67-28.4c0,0,1.32-19,26.37-20.35,0,0-.34-34,31.66-33.27,0,0,17.88-2.55,29.68,18.07,0,0,15.86-7.82,28,4.37a25.85,25.85,0,0,1,5.88,20.32s20.39,2.17,18.77,19.7C324.58,589,325.66,604.54,307.38,608.6Z" fill="#ebebeb"/><path d="M732.39,231.32,702.15,310.7a5,5,0,0,1-6.39,2.88l-13.15-5-33.73-12.71-13-4.9a5,5,0,0,1-3-6.23l21.75-64.36a4.6,4.6,0,0,1,2.79-2.86l18.31-6.65a4.6,4.6,0,0,1,3.21,0l.45.17L713.12,224Z" fill="#f75fe0"/><path d="M713.12,224l-5,13.33a6,6,0,0,1-7.69,3.53l-22.58-8.4a6,6,0,0,1-3.52-7.69l5.06-13.63Z" fill="#fff" opacity="0.2"/><path d="M696.74,269.57l-14.13,39.05-33.73-12.71L663,257a6,6,0,0,1,7.69-3.53l22.58,8.4A6,6,0,0,1,696.74,269.57Z" fill="#fff" opacity="0.2"/><rect x="663.29" y="263.87" width="30.28" height="5" rx="2.5" transform="translate(1226.96 746.32) rotate(-160.25)" fill="#fff"/><rect x="660.29" y="272.87" width="30.28" height="5" rx="2.5" transform="translate(1218.1 762.78) rotate(-160.25)" fill="#fff"/><rect x="657.29" y="281.87" width="30.28" height="5" rx="2.5" transform="translate(1209.23 779.23) rotate(-160.25)" fill="#fff"/><rect x="653.29" y="289.87" width="30.28" height="5" rx="2.5" transform="translate(1198.77 793.41) rotate(-160.25)" fill="#fff"/><rect x="686.62" y="292.02" width="23.71" height="5" rx="2.5" transform="translate(1183.94 -287.67) rotate(106.96)" opacity="0.2"/><rect x="693.53" y="252.13" width="38.1" height="5" rx="2.5" transform="translate(1193.01 -329.99) rotate(109.75)" opacity="0.2"/><path d="M216.65,560.74a10,10,0,1,1,.8,3.8A9.83,9.83,0,0,1,216.65,560.74Z" fill="#e35c5c"/><path d="M311.63,591.48c0-.26,0-.52,0-.78l7.72-2.65L319,582.6h-8.47a22.92,22.92,0,0,0-3.67-7l3.18-7-4.24-3.82-5.91,4.91a21.5,21.5,0,0,0-6.77-2.34l-1.25-5.75H283.6v6.3a22.15,22.15,0,0,0-7.58,3.91l-4.86-2.43-5.45,6.22,3.88,4.25a23.48,23.48,0,0,0-2.13,7.23L261.35,590l.47,5.83H268a23.06,23.06,0,0,0,4.81,9.37l-2.95,5.21,4.87,2.92,3.77-3.35a21.59,21.59,0,0,0,9.47,2.91h.33l1.55,4.7,7-.77.45-5.39a22.25,22.25,0,0,0,7.58-5l4.42,2.57,4.66-5.95-3.9-4.5A23.77,23.77,0,0,0,311.63,591.48Zm-5.87-.49A15,15,0,0,1,290,605.21a14.43,14.43,0,0,1-10-5A15.39,15.39,0,0,1,276.3,589a15,15,0,0,1,15.75-14.24,14.37,14.37,0,0,1,8.47,3.5A15.4,15.4,0,0,1,305.76,591Z" fill="#f75fe0"/><path d="M311.63,591.48c0-.26,0-.52,0-.78l7.72-2.65L319,582.6h-8.47a22.92,22.92,0,0,0-3.67-7l3.18-7-4.24-3.82-5.91,4.91a21.5,21.5,0,0,0-6.77-2.34l-1.25-5.75H283.6v6.3a22.15,22.15,0,0,0-7.58,3.91l-4.86-2.43-5.45,6.22,3.88,4.25a23.48,23.48,0,0,0-2.13,7.23L261.35,590l.47,5.83H268a23.06,23.06,0,0,0,4.81,9.37l-2.95,5.21,4.87,2.92,3.77-3.35a21.59,21.59,0,0,0,9.47,2.91h.33l1.55,4.7,7-.77.45-5.39a22.25,22.25,0,0,0,7.58-5l4.42,2.57,4.66-5.95-3.9-4.5A23.77,23.77,0,0,0,311.63,591.48Zm-5.87-.49A15,15,0,0,1,290,605.21a14.43,14.43,0,0,1-10-5A15.39,15.39,0,0,1,276.3,589a15,15,0,0,1,15.75-14.24,14.37,14.37,0,0,1,8.47,3.5A15.4,15.4,0,0,1,305.76,591Z" opacity="0.3"/><path d="M254.47,561.09c0-.35,0-.7,0-1l10.19-3.5-.49-7.2H253a30.76,30.76,0,0,0-4.85-9.19l4.2-9.31-5.61-5.05L239,532.28A28.47,28.47,0,0,0,230,529.2l-1.65-7.6H217.43v8.32a29.24,29.24,0,0,0-10,5.17L201,531.88l-7.19,8.22,5.13,5.62a30.73,30.73,0,0,0-2.82,9.55L188,559.12l.63,7.71h8.12a30.39,30.39,0,0,0,6.36,12.38l-3.91,6.89,6.45,3.85,5-4.42a28.4,28.4,0,0,0,12.51,3.84l.44,0,2.05,6.21,9.25-1,.59-7.12a29.41,29.41,0,0,0,10-6.55l5.84,3.39,6.17-7.86-5.16-6A31.59,31.59,0,0,0,254.47,561.09Zm-7.76-.66c-.74,11.1-10.06,19.53-20.81,18.8a19.09,19.09,0,0,1-13.23-6.66,20.37,20.37,0,0,1-4.89-14.76c.75-11.11,10.07-19.53,20.82-18.81a19,19,0,0,1,11.18,4.63A20.31,20.31,0,0,1,246.71,560.43Z" fill="#e35c5c"/><path d="M254.47,561.09c0-.35,0-.7,0-1l10.19-3.5-.49-7.2H253a30.76,30.76,0,0,0-4.85-9.19l4.2-9.31-5.61-5.05L239,532.28A28.47,28.47,0,0,0,230,529.2l-1.65-7.6H217.43v8.32a29.24,29.24,0,0,0-10,5.17L201,531.88l-7.19,8.22,5.13,5.62a30.73,30.73,0,0,0-2.82,9.55L188,559.12l.63,7.71h8.12a30.39,30.39,0,0,0,6.36,12.38l-3.91,6.89,6.45,3.85,5-4.42a28.4,28.4,0,0,0,12.51,3.84l.44,0,2.05,6.21,9.25-1,.59-7.12a29.41,29.41,0,0,0,10-6.55l5.84,3.39,6.17-7.86-5.16-6A31.59,31.59,0,0,0,254.47,561.09Zm-7.76-.66c-.74,11.1-10.06,19.53-20.81,18.8a19.09,19.09,0,0,1-13.23-6.66,20.37,20.37,0,0,1-4.89-14.76c.75-11.11,10.07-19.53,20.82-18.81a19,19,0,0,1,11.18,4.63A20.31,20.31,0,0,1,246.71,560.43Z" opacity="0.3"/><path d="M216.65,560.74a10,10,0,1,1,.8,3.8A9.83,9.83,0,0,1,216.65,560.74Z" opacity="0.2"/><path d="M216.65,560.74a10,10,0,0,1,16.14-8,9.79,9.79,0,0,1,.81,3.8,10,10,0,0,1-16.15,8A9.83,9.83,0,0,1,216.65,560.74Z" fill="#e35c5c"/><path d="M253.71,562c0-.34,0-.67,0-1l9.92-3.41-.48-7H252.3a29.91,29.91,0,0,0-4.72-8.94l4.09-9.06-5.47-4.91-7.59,6.3a27.79,27.79,0,0,0-8.7-3l-1.61-7.39H217.67v8.1a28.21,28.21,0,0,0-9.75,5l-6.25-3.13-7,8,5,5.47a30,30,0,0,0-2.74,9.29l-7.86,3.75.61,7.49h7.9a29.63,29.63,0,0,0,6.19,12.06l-3.8,6.69,6.27,3.75,4.84-4.3a27.69,27.69,0,0,0,12.17,3.74l.43,0,2,6,9-1,.57-6.92A28.63,28.63,0,0,0,245,581.3l5.68,3.3,6-7.64-5-5.79A30.38,30.38,0,0,0,253.71,562Zm-7.55-.64c-.72,10.8-9.79,19-20.25,18.29A18.57,18.57,0,0,1,213,573.19a19.82,19.82,0,0,1-4.76-14.36c.73-10.81,9.8-19,20.26-18.3a18.43,18.43,0,0,1,10.88,4.5A19.77,19.77,0,0,1,246.16,561.38Z" fill="#e35c5c"/><path d="M239.42,545a18.43,18.43,0,0,0-10.88-4.5c-10.46-.7-19.53,7.49-20.26,18.3A19.82,19.82,0,0,0,213,573.19a19.76,19.76,0,0,1-6.76-16.36c.73-10.81,9.8-19,20.26-18.3A18.55,18.55,0,0,1,239.42,545Z" opacity="0.2"/><path d="M310.38,591.37l0-.74,7.26-2.49-.35-5.12h-8a21.4,21.4,0,0,0-3.45-6.55l3-6.63-4-3.6-5.57,4.62a20.25,20.25,0,0,0-6.36-2.2l-1.18-5.41H284v5.93a20.74,20.74,0,0,0-7.14,3.68l-4.57-2.29-5.13,5.86,3.66,4a22,22,0,0,0-2,6.8L263.06,590l.44,5.49h5.79a21.51,21.51,0,0,0,4.53,8.82l-2.78,4.9,4.59,2.75,3.54-3.15a20.32,20.32,0,0,0,8.91,2.74h.31l1.46,4.42,6.59-.73.42-5.07a20.88,20.88,0,0,0,7.13-4.66l4.16,2.41,4.39-5.59-3.67-4.24A22.35,22.35,0,0,0,310.38,591.37Zm-5.53-.46A14.12,14.12,0,0,1,290,604.29a13.56,13.56,0,0,1-9.42-4.74A14.47,14.47,0,0,1,277.13,589,14.12,14.12,0,0,1,292,575.65a13.47,13.47,0,0,1,8,3.29A14.49,14.49,0,0,1,304.85,590.91Z" fill="#f75fe0"/><path d="M283.25,590.43a7.33,7.33,0,1,1,.59,2.79A7.22,7.22,0,0,1,283.25,590.43Z" fill="#f75fe0"/><path d="M283.25,590.43a7.32,7.32,0,0,1,11.82-5.85,7.13,7.13,0,0,1,.59,2.78,7.32,7.32,0,0,1-11.82,5.86A7.22,7.22,0,0,1,283.25,590.43Z" opacity="0.2"/><path d="M299.92,578.94a13.47,13.47,0,0,0-8-3.29A14.12,14.12,0,0,0,277.13,589a14.47,14.47,0,0,0,3.48,10.51,14.47,14.47,0,0,1-4.95-12,14.14,14.14,0,0,1,14.83-13.4A13.6,13.6,0,0,1,299.92,578.94Z" opacity="0.2"/><rect x="140.67" y="375.95" width="60.99" height="63.29" rx="10.76" fill="#e35c5c"/><path d="M160.13,417.6h-.21l-10.13-7.2v-2.07l10.34-7.22v4.22l-6,4,6,4Z" fill="#fff"/><path d="M178.23,394.12l-10.78,27h-3.71v-.24l10.77-27h3.72Z" fill="#fff"/><path d="M192.22,410.4l-10.14,7.2h-.25v-4.2l6-4-6-4v-4.22h.25l10.14,7.22Z" fill="#fff"/><rect x="392.28" y="63.33" width="163.63" height="106.56" rx="9.8" fill="#47ae8c"/><path d="M555.91,73.12v6.09H392.28V73.12a9.79,9.79,0,0,1,9.8-9.79h144A9.79,9.79,0,0,1,555.91,73.12Z" opacity="0.2"/><circle cx="400.45" cy="71.96" r="3.34" fill="#fff"/><circle cx="412.19" cy="71.96" r="3.34" fill="#fff"/><circle cx="424.38" cy="71.96" r="3.34" fill="#fff"/><path d="M438.83,100.46v32.28h-6.47V119H418.53v13.73h-6.48V100.46h6.48v13.28h13.83V100.46Z" fill="#fff"/><path d="M469,100.46v5.23h-8.6v27.05H454V105.69h-8.61v-5.23Z" fill="#fff"/><path d="M510.8,100.46v32.28h-6.48v-21l-8.65,21h-4.9l-8.7-21v21H475.6V100.46H483l10.27,24,10.27-24Z" fill="#fff"/><path d="M525.5,127.61h10.64v5.13H519V100.46h6.47Z" fill="#fff"/><path d="M446.8,369.59a5.43,5.43,0,0,1,3.24-3.27,5.38,5.38,0,0,1-3.24,3.27Z" fill="#f1888a"/><path d="M449.62,379.71a10.51,10.51,0,0,1,5.05-4.11,10.51,10.51,0,0,1-5.05,4.11Z" fill="#f1888a"/><path d="M622.87,499.9a35.88,35.88,0,0,0-15.33-5.27c-2.46-.26-5.25-.19-7.26,1.33a1.5,1.5,0,0,0-.75,1.32,1.61,1.61,0,0,0,.72.9,21.92,21.92,0,0,0,22.62,1.72" fill="#47ae8c"/><path d="M622.47,499.42a74.39,74.39,0,0,1-9.9-8.7,25.08,25.08,0,0,1-6.21-11.48,4.67,4.67,0,0,1,.49-3.84c7.9,6.15,14.1,14.13,15.62,24" fill="#47ae8c"/><path d="M622.78,499.81a36,36,0,0,1,.18-13,17.63,17.63,0,0,1,6.93-10.72c1.37,3.18.77,6.86-.18,10.19a50.06,50.06,0,0,1-6.87,14.46" fill="#47ae8c"/><path d="M630.52,513.67a22.53,22.53,0,0,0-12.3,6.22,23.3,23.3,0,0,0-7,12.07c4.6-.28,8.51-3.53,11.35-7.17s4.8-7.64,7.91-11.07" fill="#47ae8c"/><path d="M632.2,515.89a30.29,30.29,0,0,1,3.5-28.67c2.68,9.51,1.69,20.26-3.5,28.67" fill="#47ae8c"/><path d="M642.4,528.06a21.92,21.92,0,0,0-20.91,12.07,1.62,1.62,0,0,0-.14,1.63,1.55,1.55,0,0,0,1.39.41c4.14-.26,7.79-2.74,10.82-5.59s5.65-6.08,9-8.53" fill="#47ae8c"/><path d="M642.09,527.4a39,39,0,0,1-.39-21.81c.77-2.82,2.07-5.77,4.66-7.09a.72.72,0,0,1,1,.09.85.85,0,0,1,.15.3,13.11,13.11,0,0,1,1.09,6.27,37.68,37.68,0,0,1-1,6.33c-.82,3.88-1.23,8-3.38,11.37a20.9,20.9,0,0,0-1.34,2.46c-.41.85-.41,1.15-.78,1.82" fill="#47ae8c"/><path d="M669.15,531.42a28.16,28.16,0,0,1,4.92-23.12c.36-.46.83-.95,1.41-.89.88.07,1.12,1.23,1.08,2.14a41.86,41.86,0,0,1-7.38,21.87" fill="#47ae8c"/><path d="M671.59,533.12a33.69,33.69,0,0,0,27.6-5.61,22.28,22.28,0,0,0-15-1.86c-5,1.13-9.54,3.37-12.66,7.44" fill="#47ae8c"/><path d="M673.64,528a31.92,31.92,0,0,1,25.06-14.48c-1.14,4-4.47,7.16-8.19,9.06a45.53,45.53,0,0,1-12,3.51c-1.6.31-3.79.66-4.84,1.91" fill="#47ae8c"/><path d="M669.67,503.37a72.8,72.8,0,0,0,3.2-14.66A24.44,24.44,0,0,0,670,474.2c-4.84,9.38-5.34,20.33-.43,29.68" fill="#47ae8c"/><path d="M686,495.13c5.67-10.31,17.22-18.54,28.93-19.68-4.51,11.23-16.81,19.91-28.93,19.68" fill="#47ae8c"/><path d="M682.41,497.15c8.47,1.29,15.66,6.68,23.56,10a10.64,10.64,0,0,0,5.33,1,4.16,4.16,0,0,0,2.6-7.38,11.52,11.52,0,0,0-3.86-2.35c-8.61-3.58-17.83-3.69-26.9-1.5" fill="#47ae8c"/><path d="M677.53,503.08c1.91.54,2.56,1.53,4.08,2.83a44.12,44.12,0,0,0,17.86,9.17c.68.17,1.58.24,1.91-.38a1.5,1.5,0,0,0-.45-1.67,24.56,24.56,0,0,0-10.79-7.32c-4.12-1.54-7.69-3.38-12.61-3" fill="#47ae8c"/><path d="M672,467.27a33.84,33.84,0,0,0,25.92,8.82,1.87,1.87,0,0,0,1.23-.43c.65-.7-.14-1.8-.9-2.46-7.62-5.93-16.84-8.4-26.2-6" fill="#47ae8c"/><path d="M678.55,464.87a36.17,36.17,0,0,1,32.34-5.34,25.64,25.64,0,0,1-15.41,6.77,48.57,48.57,0,0,1-16.93-1.43" fill="#47ae8c"/><path d="M676,448.43c-.75-7.62-.27-13.62-.8-21.26,0-.6-.18-1.34-.74-1.56-.8-.31-1.47.67-1.72,1.49a24.34,24.34,0,0,0,3.24,21.15" fill="#47ae8c"/><path d="M675.4,449.26A44.78,44.78,0,0,0,688,437c2.46-3.4,4.59-7.49,4-11.66a12.11,12.11,0,0,0-9.09,4.5,25.36,25.36,0,0,0-4.62,9.33c-1,3.34-1.73,6.79-2.91,10.07" fill="#47ae8c"/><path d="M687.78,445.78a101.7,101.7,0,0,0,31-18.28c-3.69-1.49-7.95-.59-11.65.9a36.69,36.69,0,0,0-19.52,17.38" fill="#47ae8c"/><path d="M678.88,453.42a62.86,62.86,0,0,0,17.22.09c5.59-.94,10.87-3.15,16.08-5.34a2,2,0,0,0,1.1-.84,1.22,1.22,0,0,0-.4-1.36,3.47,3.47,0,0,0-1.38-.66,29.78,29.78,0,0,0-17.35,1.05,79.93,79.93,0,0,0-15.25,7.06" fill="#47ae8c"/><path d="M646.2,467.53a30.5,30.5,0,0,1-.27-25.21c2.37,3.62,2.66,8.23,2.23,12.54s-1.75,8.73-1.84,13.06" fill="#47ae8c"/><path d="M630.6,459.67a35.09,35.09,0,0,0-26.11,11.07,24.45,24.45,0,0,0,14.3-2.65,73.43,73.43,0,0,0,12.31-8.2" fill="#47ae8c"/><path d="M620.12,456.15c-4.77-.38-9.36-1-14,.43a16.73,16.73,0,0,0-10.62,9,25.11,25.11,0,0,0,13.07-2.46,74.35,74.35,0,0,0,11.5-7" fill="#47ae8c"/><path d="M635.65,456.31c-4.3-2.8-8.7-5.67-13.69-6.83s-10.79-.3-14.27,3.46c4,2.37,8.95,2.66,13.64,2.64s10.43,0,14.86,1.52" fill="#47ae8c"/><path d="M635.67,456.54c-7.38-7.2-10.11-20.13-7.16-30a45.7,45.7,0,0,1,7.16,30" fill="#47ae8c"/><path d="M655.84,436.14c1.38-3.23,2.35-6.6,3.6-9.84a28.1,28.1,0,0,1,5.13-9.09,13.48,13.48,0,0,1,9.09-4.71A36.58,36.58,0,0,1,656,436.21" fill="#47ae8c"/><path d="M652.24,440.39c-2.29-3.16-4.92-7.38-8-9.78s-7.15-3.77-10.94-2.87a25.47,25.47,0,0,0,19,12.65" fill="#47ae8c"/><path d="M652.92,436.4a54.75,54.75,0,0,1-3.62-11.71,18.38,18.38,0,0,1,1.83-11.92c4,7.61,5.33,15.78,2,23.71" fill="#47ae8c"/><path d="M655.93,412.77c2.28-7.54,9.19-13.1,16.64-15.65a6.22,6.22,0,0,1,2.92-.44,2.54,2.54,0,0,1,2.15,1.79c.27,1.23-.79,2.46-1.78,3.29a56.58,56.58,0,0,1-19.93,11.07" fill="#47ae8c"/><path d="M655.93,406.59c.3-4.86.6-9.84,2.18-14.4s4.64-8.93,9.06-10.95c.77,4.92-1.4,9.84-4,14s-5.77,8.22-7.38,12.94" fill="#47ae8c"/><path d="M655.84,410c-1.89-5.5-2.07-12.49-5.37-17.28-2.3-3.35-6-5.63-8-9.18a13.93,13.93,0,0,0,.47,10.42,29.92,29.92,0,0,0,6.15,8.72c2.46,2.61,4.52,4.56,6.79,7.32" fill="#47ae8c"/><path d="M655.93,571.86c-.15,0-.28-36.67-.28-81.91s.1-81.92.24-81.92.27,36.67.29,81.92S656,571.86,655.93,571.86Z" fill="#463548"/><path d="M687.91,462a7.49,7.49,0,0,1-1.39.52l-3.79,1.23c-3.19,1.09-7.6,2.67-12.37,4.62s-9.18,3.69-11.71,5.88a8.59,8.59,0,0,0-2.35,3.12c-.37.86-.43,1.39-.48,1.37s0-.13,0-.38a5.09,5.09,0,0,1,.27-1.07,8.26,8.26,0,0,1,2.3-3.21,20.39,20.39,0,0,1,5.08-3.16c2-1,4.29-1.94,6.68-2.93,4.79-2,9.21-3.48,12.45-4.49,1.62-.5,2.94-.87,3.86-1.12A8.15,8.15,0,0,1,687.91,462Z" fill="#463548"/><path d="M698.44,436.19a2.16,2.16,0,0,1-.39.41l-1.17,1.11-4.4,4-14.63,13c-5.71,5.08-10.64,9.94-14.06,13.6-1.71,1.82-3,3.33-4,4.39l-1.07,1.23a2.46,2.46,0,0,1-.4.39,3,3,0,0,1,.32-.47c.22-.29.54-.73,1-1.23.87-1.09,2.17-2.64,3.86-4.51a187,187,0,0,1,14-13.74c5.72-5.07,10.93-9.62,14.76-12.9l4.51-3.87,1.23-1A2.27,2.27,0,0,1,698.44,436.19Z" fill="#463548"/><path d="M671.69,459.89c-.15-.07,1-2.83,2.24-6.31s1.76-6.42,1.92-6.4a22.06,22.06,0,0,1-1.42,6.57,46.88,46.88,0,0,1-1.78,4.42A6.6,6.6,0,0,1,671.69,459.89Z" fill="#463548"/><path d="M655.93,482.09a7.69,7.69,0,0,1-.87-1l-2.25-2.89c-1.9-2.46-4.52-5.83-7.45-9.52s-5.63-7-7.59-9.42l-2.3-2.84a7.18,7.18,0,0,1-.8-1.1,6.22,6.22,0,0,1,1,1l2.46,2.74c2,2.34,4.78,5.63,7.72,9.33s5.51,7.12,7.38,9.62c.91,1.23,1.63,2.27,2.11,3A5.08,5.08,0,0,1,655.93,482.09Z" fill="#463548"/><path d="M648.88,473.06a13,13,0,0,1-2.94-5.51,15.85,15.85,0,0,1-.67-5.56h.23c-.1.42-.17.64-.22.64s0-.24,0-.67h.23a25.55,25.55,0,0,0,.94,5.41A41.94,41.94,0,0,0,648.88,473.06Z" fill="#463548"/><path d="M639.8,461.65a8.52,8.52,0,0,0-2-1.23A13.77,13.77,0,0,0,632,460a36,36,0,0,0-5.74.94,17.59,17.59,0,0,1-2.36.56,8,8,0,0,1,2.26-.93,26.73,26.73,0,0,1,5.81-1.1,12.57,12.57,0,0,1,5.89.64A3.65,3.65,0,0,1,639.8,461.65Z" fill="#463548"/><path d="M637.66,458.88c0,.09-1.23-.48-3.14-1.14a31.77,31.77,0,0,0-15.89-1.23c-2,.35-3.25.73-3.28.65a3.13,3.13,0,0,1,.84-.36,19.35,19.35,0,0,1,2.37-.66,27.77,27.77,0,0,1,8.13-.57,28.22,28.22,0,0,1,7.95,1.79,22.78,22.78,0,0,1,2.25,1A3.29,3.29,0,0,1,637.66,458.88Z" fill="#463548"/><path d="M655.84,447.18a66.06,66.06,0,0,1-2.3-8,64.31,64.31,0,0,1-1.78-8.1,62.61,62.61,0,0,1,2.3,8A68,68,0,0,1,655.84,447.18Z" fill="#463548"/><path d="M656,447.18a41.11,41.11,0,0,0-2.54-4.77,20.52,20.52,0,0,0-3.76-3.86,3.49,3.49,0,0,1,1.46.74,12.14,12.14,0,0,1,2.73,2.81A10.74,10.74,0,0,1,656,447.18Z" fill="#463548"/><path d="M655.93,552.32s-.17-.89-.58-2.46a34.3,34.3,0,0,0-2.46-6.36,87.58,87.58,0,0,0-13-18.32c-2.9-3.32-5.72-6.44-8.11-9.45a67,67,0,0,1-5.8-8.36,40.27,40.27,0,0,1-2.93-6.15c-.27-.76-.47-1.35-.58-1.77a4.75,4.75,0,0,1-.14-.63s.31.84.92,2.33a44.58,44.58,0,0,0,3.06,6.15,68.75,68.75,0,0,0,5.86,8.24c2.39,3,5.21,6.07,8.13,9.4a84.1,84.1,0,0,1,12.94,18.51,31.36,31.36,0,0,1,2.31,6.47,15.9,15.9,0,0,1,.32,1.83A2.76,2.76,0,0,1,655.93,552.32Z" fill="#463548"/><path d="M684.84,519.58a11.33,11.33,0,0,1-1.52.85,34.33,34.33,0,0,0-3.93,2.61,46.15,46.15,0,0,0-5.17,4.71c-1.82,1.92-3.69,4.15-5.6,6.53-3.81,4.79-7.38,9-9.52,12.42a47.18,47.18,0,0,0-2.38,4.08,15,15,0,0,1-.84,1.52,1.05,1.05,0,0,1,.14-.43c.13-.27.27-.68.51-1.23a41.11,41.11,0,0,1,2.25-4.19A143.06,143.06,0,0,1,668.23,534c1.92-2.38,3.81-4.61,5.66-6.53a40.54,40.54,0,0,1,5.3-4.67,27.09,27.09,0,0,1,4.06-2.46,9.4,9.4,0,0,1,1.23-.53A2,2,0,0,1,684.84,519.58Z" fill="#463548"/><path d="M685.45,530.21a23.21,23.21,0,0,1-3.21.47,42.7,42.7,0,0,0-7.61,1.5,23.16,23.16,0,0,0-6.82,3.57c-1.57,1.23-2.31,2.22-2.38,2.16a2.35,2.35,0,0,1,.48-.74,12.85,12.85,0,0,1,1.67-1.71,20.45,20.45,0,0,1,6.89-3.78,34.44,34.44,0,0,1,7.73-1.37A17.67,17.67,0,0,1,685.45,530.21Z" fill="#463548"/><path d="M666.32,536.81c-.16-.1,1.23-2.3,2.46-5.28s1.23-5.62,1.49-5.6a5.22,5.22,0,0,1-.06,1.72,18.7,18.7,0,0,1-.93,4.06,19,19,0,0,1-1.86,3.69A5,5,0,0,1,666.32,536.81Z" fill="#463548"/><path d="M694.22,491.11a2.49,2.49,0,0,1-.51.27l-1.5.69c-.67.28-1.47.64-2.38,1.12s-2,.94-3.06,1.61l-1.75,1c-.6.36-1.23.78-1.84,1.23-1.23.79-2.59,1.75-4,2.73A68.17,68.17,0,0,0,664,515.54c-.93,1.41-1.86,2.74-2.59,4.06-.39.65-.78,1.23-1.1,1.88s-.64,1.23-.93,1.78c-.63,1.12-1.07,2.19-1.52,3.11s-.77,1.74-1,2.46l-.64,1.53a3.65,3.65,0,0,1-.25.53,2.18,2.18,0,0,1,.15-.57l.54-1.56c.24-.69.54-1.51,1-2.46s.84-2,1.44-3.17c.3-.58.6-1.23.91-1.81s.71-1.23,1.08-1.92c.73-1.33,1.64-2.67,2.57-4.11a66,66,0,0,1,15.38-15.9c1.4-1,2.71-1.93,4-2.71.64-.39,1.23-.8,1.87-1.14l1.79-1c1.12-.66,2.19-1.11,3.11-1.55a23.71,23.71,0,0,1,2.46-1l1.55-.59A1.62,1.62,0,0,1,694.22,491.11Z" fill="#463548"/><path d="M671.29,506.46a3.76,3.76,0,0,1,1.23-1.87,8,8,0,0,1,5.08-2,14.15,14.15,0,0,1,5.34,1.05,8.1,8.1,0,0,1,2,1,12.55,12.55,0,0,1-2.15-.62,16.45,16.45,0,0,0-5.2-.88,8.4,8.4,0,0,0-4.85,1.71A17.09,17.09,0,0,0,671.29,506.46Z" fill="#463548"/><path d="M667.87,510a19.37,19.37,0,0,0,1.44-4.7,18.91,18.91,0,0,0-.32-4.92,3,3,0,0,1,.59,1.37,9.26,9.26,0,0,1,.26,3.59,9.71,9.71,0,0,1-1.07,3.44C668.32,509.62,667.92,510,667.87,510Z" fill="#463548"/><path d="M630.54,557.57c.79,14,5,28.29,11.52,42.68h28.29c6.15-14.27,10.12-28.5,10.82-42.68Z" fill="#463548"/><path d="M676.56,580.25c0,.15-9.3.27-20.78.27S635,580.4,635,580.25s9.3-.26,20.77-.26S676.56,580.1,676.56,580.25Z" fill="#fafafa"/><path d="M675.93,585.33c0,.15-8.72.27-19.48.27s-19.47-.12-19.47-.27,8.72-.27,19.47-.27S675.93,585.18,675.93,585.33Z" fill="#fafafa"/><path d="M642.51,566.77a78.5,78.5,0,0,1,0,13A83.1,83.1,0,0,1,642.51,566.77Z" fill="#fafafa"/><path d="M657.65,566.77a87.3,87.3,0,0,1,0,13.53A84.89,84.89,0,0,1,657.65,566.77Z" fill="#fafafa"/><path d="M671.92,566.66a87.66,87.66,0,0,1,0,13.75A92.81,92.81,0,0,1,671.92,566.66Z" fill="#fafafa"/><path d="M680.24,566.77c0,.15-10.91.27-24.37.27s-24.37-.12-24.37-.27,10.91-.26,24.37-.26S680.24,566.62,680.24,566.77Z" fill="#fafafa"/><path d="M228.06,260.94a11.3,11.3,0,0,1,4.33-4.24A12.74,12.74,0,0,1,245,257a10.45,10.45,0,0,1,4.21,5.18h-4.6a6.14,6.14,0,0,0-2.52-2.75,7.48,7.48,0,0,0-3.72-.9,8,8,0,0,0-4.13,1,7.23,7.23,0,0,0-2.84,3,10.5,10.5,0,0,0,0,9.07,7.37,7.37,0,0,0,2.84,3,8.05,8.05,0,0,0,4.13,1.05,7.48,7.48,0,0,0,3.72-.9,6.17,6.17,0,0,0,2.52-2.76h4.6a10.34,10.34,0,0,1-4.21,5.17,12.27,12.27,0,0,1-6.63,1.82,12,12,0,0,1-6-1.53,11.37,11.37,0,0,1-4.32-4.25,12.67,12.67,0,0,1,0-12.29Z" fill="#fff"/><path d="M269.17,265.78a6.3,6.3,0,0,1-2.68,2.57,10,10,0,0,1-4.74,1h-4.23v9.46H253.7V255.47h8.05a10.25,10.25,0,0,1,4.55.92,6.45,6.45,0,0,1,2.79,2.5,6.84,6.84,0,0,1,.92,3.53A7,7,0,0,1,269.17,265.78Zm-4.16-.56a3.6,3.6,0,0,0,1.07-2.8q0-3.82-4.33-3.83h-4.23v7.62h4.23A4.67,4.67,0,0,0,265,265.22Z" fill="#fff"/><path d="M277.47,255.47v14.87a5.31,5.31,0,0,0,1.39,4,6.33,6.33,0,0,0,7.79,0,5.31,5.31,0,0,0,1.39-4V255.47h3.83v14.81a8.9,8.9,0,0,1-1.24,4.83,7.74,7.74,0,0,1-3.33,3,11.34,11.34,0,0,1-9.18,0,7.49,7.49,0,0,1-3.27-3,9.07,9.07,0,0,1-1.21-4.83V255.47Z" fill="#fff"/></svg>